HIERARCHY
ROOT simHips
{
  OFFSET -150.094 99.6375 98.6872
  CHANNELS 6 Xposition Yposition Zposition Zrotation Xrotation Yrotation
  JOINT simSpine
  {
    OFFSET -0.000355721 21.3001 -0.016921
    CHANNELS 3 Zrotation Xrotation Yrotation
    JOINT simLeftArm
    {
      OFFSET 13.5181 21.3012 0
      CHANNELS 3 Zrotation Xrotation Yrotation
      JOINT simLeftForeArm
      {
        OFFSET 24.5783 0 0
        CHANNELS 3 Zrotation Xrotation Yrotation
        JOINT simLeftHand
        {
          OFFSET 24.5783 0 0
          CHANNELS 3 Zrotation Xrotation Yrotation
          End Site
          {
            OFFSET 7.32568 1.52588e-05 0.0169305
          }
        }
      }
    }
    JOINT simHead
    {
      OFFSET 0 27.4458 -0.00489235
      CHANNELS 3 Zrotation Xrotation Yrotation
      End Site
      {
        OFFSET 0 0 0
      }
    }
    JOINT simRightArm
    {
      OFFSET -13.5174 21.3012 0
      CHANNELS 3 Zrotation Xrotation Yrotation
      JOINT simRightForeArm
      {
        OFFSET -24.5783 0 0
        CHANNELS 3 Zrotation Xrotation Yrotation
        JOINT simRightHand
        {
          OFFSET -24.5783 0 0
          CHANNELS 3 Zrotation Xrotation Yrotation
          End Site
          {
            OFFSET -7.32568 1.52588e-05 0.0169305
          }
        }
      }
    }
  }
  JOINT simRightUpLeg
  {
    OFFSET -8.44614 -9.41038 0.835684
    CHANNELS 3 Zrotation Xrotation Yrotation
    JOINT simRightLeg
    {
      OFFSET 0 -40.9639 0
      CHANNELS 3 Zrotation Xrotation Yrotation
      JOINT simRightFoot
      {
        OFFSET 0 -40.9639 0
        CHANNELS 3 Zrotation Xrotation Yrotation
        End Site
        {
          OFFSET 0.50614 -9.67405 14.6709
        }
      }
    }
  }
  JOINT simLeftUpLeg
  {
    OFFSET 8.44614 -9.41038 0.835684
    CHANNELS 3 Zrotation Xrotation Yrotation
    JOINT simLeftLeg
    {
      OFFSET 0 -40.9639 0
      CHANNELS 3 Zrotation Xrotation Yrotation
      JOINT simLeftFoot
      {
        OFFSET 0 -40.9639 0
        CHANNELS 3 Zrotation Xrotation Yrotation
        End Site
        {
          OFFSET -0.50614 -9.67405 14.6709
        }
      }
    }
  }
}
MOTION
Frames:	12
Frame Time:	0.0333333
-41.9688 96.5621 8.70421 19.4067 -21.6957 -49.2204 20.3484 32.2036 -21.8285 -21.98 1.87085 -31.3202 30.1451 -3.92153 -33.4811 24.1813 -7.96357 16.3286 -16.3278 -1.35351 41.4212 38.2576 18.1046 -9.09627 -44.8651 -22.5192 52.4798 -11.8426 -1.89703 5.76311 -41.3794 -38.5849 -1.66678 33.5973 61.4415 -17.448 -8.47296 -5.03039 -7.95391 46.8459 -19.758 11.7829 -103.423 66.4221 78.314 -6.33049 4.21231 -7.72414 
-39.8978 92.2111 8.74371 16.672 -18.784 -49.4907 24.0566 32.1887 -23.7668 -11.7957 -2.23836 -39.6525 36.6307 -7.29169 -40.7948 22.685 -1.0897 13.2736 -16.8909 -5.32085 43.1818 62.9712 8.6226 -23.8001 -45.8 -23.644 53.7067 -12.2209 -0.425968 4.38187 -42.7656 -40.4246 4.6461 34.83 62.2815 -18.5507 -15.9649 -5.49816 -19.3159 41.6703 -22.9344 14.5627 -92.9838 66.9011 68.7996 -11.9538 4.39609 -16.316 
-38.1008 86.87 8.74745 14.1622 -16.1016 -52.3938 24.5211 32.3895 -23.1955 -2.92912 -0.202919 -42.6019 44.2067 -12.659 -49.5545 22.5912 4.00557 11.7594 -18.4717 -8.05834 47.6813 77.808 -2.30168 -29.2349 -44.5391 -22.1362 52.0547 -17.0087 -0.97999 0.650367 -43.2184 -37.6183 10.3683 25.9027 54.8231 -10.3775 7.20075 -25.7471 -8.71944 38.1937 -23.7938 18.1752 -69.9721 65.4775 47.8516 -15.7781 9.24253 -22.4213 
-36.2427 81.2734 8.43026 8.93439 -12.0611 -56.1936 26.8349 35.178 -23.3688 5.55561 6.32504 -43.3171 49.8082 -17.7737 -56.2284 23.2954 6.99155 8.50308 -18.7433 -10.656 50.3139 82.8361 0.0707915 -24.1151 -41.1962 -18.4734 47.7847 -24.9774 -5.95649 -11.7417 -42.5385 -45.0381 2.22467 39.4384 64.9296 -21.7592 5.92963 -27.2364 -6.26866 38.061 -24.6273 17.3605 -49.1428 60.3366 29.1927 -13.4011 4.30943 -21.5811 
-34.5975 75.6099 8.37449 1.83545 -10.1627 -57.2035 28.1295 38.4092 -24.1288 8.62212 20.1014 -46.435 49.7952 -17.7606 -56.2128 25.9937 10.7342 4.27717 -17.054 -9.2071 51.7339 80.2067 10.5725 -16.6766 -39.4682 -16.7551 45.6282 -21.1434 -4.03957 -12.4701 -42.8896 -46.4605 -3.9524 60.2317 71.6868 -40.8253 5.15087 -28.8608 -3.64246 37.4882 -26.5106 3.186 -57.6567 63.1029 36.1429 -15.1272 -21.4572 -12.4784 
-33.6534 70.1706 7.91159 -3.63578 -11.7932 -57.1667 22.6624 42.1839 -20.5172 1.52869 34.4838 -46.8041 44.3748 -12.8008 -49.7685 19.9115 16.0937 7.45708 -14.3496 -7.28406 51.8174 73.2303 20.6258 1.05108 -38.6275 -15.9592 44.5895 -15.6554 3.10697 -8.39262 -43.6286 -47.0663 -4.06483 92.0189 74.5049 -71.0017 5.13065 -31.755 -4.08735 38.462 -27.6086 1.18244 -79.2485 66.5956 55.6276 -3.57337 -32.7542 2.71531 
-33.4362 65.3781 6.3444 -8.29559 -14.1468 -51.7452 17.4897 45.4206 -17.5671 -20.3681 37.2017 -35.3904 34.3063 -5.96136 -38.1524 18.5459 16.7126 9.60693 -9.31019 -11.5857 50.5905 60.0048 26.2817 27.5866 -39.3679 -16.659 45.5043 -16.2187 2.00967 -5.3059 -43.6674 -43.9539 -3.69049 121.484 72.6499 -99.0036 4.91596 -36.3039 -6.69114 42.9183 -33.295 2.24251 -99.8753 66.7742 74.5945 0.0673489 -30.2035 11.1965 
-34.6043 60.733 4.2875 -8.69398 -17.3328 -42.1263 7.82826 46.287 -8.29743 -33.4945 33.9256 -21.9685 26.2887 -2.37101 -29.1298 19.4539 3.072 13.9971 -3.80229 -16.1515 48.0533 44.4523 18.2058 50.0753 -41.9881 -19.2993 48.7834 -18.0546 2.0525 -1.7826 -47.2967 -40.2304 -5.97041 142.735 67.3364 -118.698 3.30834 -42.2561 -11.3067 47.9667 -43.0546 7.08641 -113.357 65.3589 87.0185 1.41948 -21.6843 13.5802 
-37.5707 57.1613 3.05498 -6.09118 -19.792 -29.3538 -3.81978 45.5625 6.16617 -32.7701 38.5122 -12.3295 24.0912 -1.63994 -26.6758 18.498 5.90528 8.21786 -2.19355 -21.343 39.2059 34.099 -0.193775 60.3396 -45.2382 -22.958 52.9633 -23.2671 1.72567 -2.0686 -51.9414 -34.9262 -8.09564 156.363 59.6857 -130.734 2.67594 -45.8032 -14.2897 53.1094 -50.8692 14.2312 -115.939 64.9192 89.4934 1.34465 -14.6702 7.26404 
-42.2332 55.197 4.13514 -1.92823 -18.94 -13.1263 -14.132 40.5045 19.5487 -36.08 36.2584 -7.49512 22.9855 -1.31157 -25.4479 20.2532 4.43749 11.032 -2.1367 -20.5578 23.0531 25.5607 -11.5627 62.8292 -47.9716 -26.4208 56.6195 -25.9109 -0.584645 -3.67561 -56.3673 -26.5242 -9.76476 164.644 51.3474 -137.667 9.44007 -42.903 -11.4398 62.2557 -54.6836 27.0324 -112.478 65.4692 86.4649 -2.618 -10.2187 -2.65664 
-47.1425 54.6394 9.1601 -0.286251 -18.1885 5.36222 -22.8686 35.1442 28.9504 -38.9989 30.4174 -3.20068 25.6239 -2.1402 -28.3749 21.403 3.81326 11.7693 8.89924 -17.2328 5.335 20.6794 -11.4389 60.1583 -49.2806 -28.2329 58.4414 -22.8125 3.26857 -0.754616 -55.9555 -9.74494 -5.75348 166.526 48.3589 -139.362 22.4543 -25.3309 -5.80801 74.1026 -55.3593 41.6477 -116.366 64.869 89.9722 5.23765 -11.8984 10.7838 
-49.1419 54.5633 16.7647 -0.386348 -21.8396 26.1997 -24.7423 34.3607 34.3581 -40.5955 31.4504 1.67738 27.6534 -2.88009 -30.6463 23.3067 4.05084 12.6596 19.8753 -14.6119 -11.6156 20.8198 -3.50801 53.1625 -48.3323 -26.9118 57.1187 -20.3996 8.3703 2.22372 -47.8891 11.6873 -1.7867 158.604 56.7343 -133.819 23.0438 9.82868 4.07156 79.9534 -57.5721 46.4284 -125.75 62.7753 98.3417 15.2383 -13.0639 21.0142 
